<svg xmlns="http://www.w3.org/2000/svg" width="1025" height="712" viewBox="0 0 1025 712" fill="none"><path d="M155.5 0L137.5 35.5L243 82.5H434L508.5 692L587 82.5L772 86L885 40L863.5 0H155.5Z" fill="black"></path><path d="M1024.5 289H772L515 712L1024.5 289Z" fill="black"></path><path d="M0 289H251L505.5 712L0 289Z" fill="black"></path><path d="M254 215L251 256.5L0 259.5L124.5 57L419.5 157.5L430 264L254 215Z" fill="black"></path><path d="M594.5 272L749.5 289L605.5 223.5L594.5 272Z" fill="black"></path><path d="M772 262.5V107L896 62.5L1024.5 262.5H772Z" fill="black"></path></svg>